<?xml version="1.0" encoding="UTF-8"?>
<svg id="Camada_2" data-name="Camada 2" xmlns="http://www.w3.org/2000/svg" viewBox="0 0 481.26 109.07">
  <defs>
    <style>
      .cls-1 {
        fill: #7954d8;
      }

      .cls-2 {
        fill: #303030;
      }
    </style>
  </defs>
  <g id="Camada_1-2" data-name="Camada 1">
    <g>
      <g>
        <path class="cls-1" d="M141.77,95.27v1.39c0,.42-.33.77-.77.82l-59.46,6.97-.2.24c-2.53,2.92-6.18,4.39-9.83,4.39s-7.3-1.47-9.83-4.39l-.2-.24-59.46-6.97c-.44-.05-.77-.4-.77-.82v-1.39c0-8.39,7.84-14.89,16.76-13.9l38.93,4.33c2.89,0,5.63,1.15,7.53,3.18l4,4.24c.81.86,1.92,1.28,3.03,1.29h.01c1.12,0,2.23-.43,3.03-1.29l3.99-4.24c1.9-2.02,4.65-3.18,7.54-3.18l38.93-4.33c8.92-.99,16.76,5.51,16.76,13.9Z"/>
        <g>
          <path class="cls-1" d="M71.51,0h0c-5.36,0-9.7,4.53-9.7,10.11v38.46c0,7.93,2.19,15.69,6.32,22.36h0c1.58,2.56,5.17,2.56,6.75,0h0c4.13-6.66,6.32-14.42,6.32-22.36V10.11C81.2,4.53,76.86,0,71.51,0Z"/>
          <path class="cls-1" d="M141.68,41.96l.31.48c.2.31,1.21,2.06.18,2.92l-37.99,27.19c-4.13,2.93-8.91,4.67-13.74,5.03l-3.78.28c-2.46.18-4.01-2.2-2.94-4.51l.84-1.83c2.63-5.69,6.78-10.66,11.94-14.31l23.13-16.37c8.06-5.71,17.14-6.42,22.05,1.12Z"/>
          <path class="cls-1" d="M.95,41.96l-.31.48c-.2.31-1.21,2.06-.18,2.92l37.99,27.19c4.13,2.93,8.91,4.67,13.74,5.03l3.78.28c2.46.18,4.01-2.2,2.94-4.51l-.84-1.83c-2.63-5.69-6.78-10.66-11.94-14.31l-23.13-16.37c-8.06-5.71-17.14-6.42-22.05,1.12Z"/>
        </g>
      </g>
      <g>
        <path class="cls-2" d="M165.62,66.64c0-16.08,9.6-28.27,24.38-28.27,7.01,0,12.51,2.91,16.4,9.17l.76-.11c-.22-2.7-.22-5.07-.22-7.87h11.16c1.76,0,3.19,1.43,3.19,3.19v47.77c0,1.76-1.43,3.19-3.19,3.19h-11.16c0-3.02,0-4.97.22-7.88l-.76-.22c-3.99,6.47-10.03,9.39-16.94,9.39-14.57,0-23.84-12.63-23.84-28.38ZM207.05,66.64c0-8.96-5.28-15.21-13.59-15.21s-13.27,6.58-13.27,15.21,5.07,15.21,13.27,15.21,13.59-6.26,13.59-15.21Z"/>
        <path class="cls-2" d="M232.18,72.25v-25.46c0-3.99,3.24-7.23,7.23-7.23h0c3.99,0,7.23,3.24,7.23,7.23v24.81c0,6.37,3.78,10.79,10.03,10.79s9.93-4.42,9.93-10.79v-24.81c0-3.99,3.24-7.23,7.23-7.23h.11c3.99,0,7.23,3.24,7.23,7.23v25.35c0,14.67-9.71,23.41-24.49,23.41s-24.49-8.74-24.49-23.3Z"/>
        <path class="cls-2" d="M292.15,42.75c0-1.76,1.43-3.19,3.19-3.19h11.05c0,2.91,0,5.28-.22,8.2l.76.11c3.02-6.15,8.31-8.74,14.03-8.74.97,0,1.94.11,3.02.32v13.27h-5.18c-7.88,0-12.09,4.85-12.09,12.95v20.82c0,3.99-3.24,7.23-7.23,7.23h-.11c-3.99,0-7.23-3.24-7.23-7.23v-43.74Z"/>
        <path class="cls-2" d="M326.35,66.64c0-16.72,11.44-28.92,28.05-28.92s28.05,12.09,28.05,28.81-11.44,28.92-28.05,28.92-28.05-12.09-28.05-28.81ZM368.1,66.53c0-8.74-5.28-15.75-13.7-15.75s-13.7,7.01-13.7,15.86,5.18,15.75,13.7,15.75,13.7-7.01,13.7-15.86Z"/>
        <path class="cls-2" d="M391.4,42.75c0-1.76,1.43-3.19,3.19-3.19h11.05c0,2.91,0,5.28-.22,8.2l.76.11c3.02-6.15,8.31-8.74,14.03-8.74.97,0,1.94.11,3.02.32v13.27h-5.18c-7.88,0-12.09,4.85-12.09,12.95v20.82c0,3.99-3.24,7.23-7.23,7.23h-.11c-3.99,0-7.23-3.24-7.23-7.23v-43.74Z"/>
        <path class="cls-2" d="M425.59,66.64c0-16.08,9.6-28.27,24.38-28.27,7.01,0,12.51,2.91,16.4,9.17l.76-.11c-.22-2.7-.22-5.07-.22-7.87h11.16c1.76,0,3.19,1.43,3.19,3.19v47.77c0,1.76-1.43,3.19-3.19,3.19h-11.16c0-3.02,0-4.97.22-7.88l-.76-.22c-3.99,6.47-10.03,9.39-16.94,9.39-14.57,0-23.84-12.63-23.84-28.38ZM467.02,66.64c0-8.96-5.28-15.21-13.59-15.21s-13.27,6.58-13.27,15.21,5.07,15.21,13.27,15.21,13.59-6.26,13.59-15.21Z"/>
      </g>
    </g>
  </g>
</svg>